<?xml version="1.0" ?><!DOCTYPE svg  PUBLIC '-//W3C//DTD SVG 1.1//EN'  'http://www.w3.org/Graphics/SVG/1.1/DTD/svg11.dtd'><svg height="100%" style="fill-rule:evenodd;clip-rule:evenodd;stroke-linejoin:round;stroke-miterlimit:2;" version="1.1" viewBox="0 0 24 24" width="100%" xml:space="preserve" xmlns="http://www.w3.org/2000/svg" xmlns:serif="http://www.serif.com/" xmlns:xlink="http://www.w3.org/1999/xlink"><g id="Fix-Car"><path d="M16.602,4.724c0.225,0.073 0.402,0.249 0.478,0.473l0.672,1.995l0.474,-0.159l-0.672,-1.995c-0.076,-0.225 -0.041,-0.472 0.094,-0.666c0.134,-0.195 0.353,-0.315 0.59,-0.323c1.83,-0.066 3.562,1.065 4.178,2.891c0.495,1.47 0.53,3.144 -0.661,4.304l1.639,4.864c0.396,1.177 -0.237,2.453 -1.414,2.85c-1.178,0.397 -2.454,-0.236 -2.851,-1.414l-1.638,-4.863c-1.65,-0.204 -2.635,-1.557 -3.131,-3.027c-0.615,-1.826 0.081,-3.775 1.577,-4.83c0.193,-0.137 0.44,-0.174 0.665,-0.1Zm-0.55,2.121c-0.418,0.673 -0.543,1.521 -0.27,2.33c0.462,1.372 1.213,2.067 2.229,2.031c0.332,-0.012 0.631,0.195 0.737,0.51l1.803,5.349c0.132,0.393 0.557,0.604 0.95,0.472c0.393,-0.133 0.604,-0.558 0.471,-0.951l-1.802,-5.349c-0.106,-0.315 0.007,-0.661 0.278,-0.852c0.831,-0.586 1.008,-1.594 0.546,-2.966c-0.272,-0.809 -0.885,-1.408 -1.625,-1.691l0.518,1.536c0.132,0.393 -0.079,0.818 -0.471,0.951l-1.896,0.638c-0.392,0.132 -0.818,-0.079 -0.95,-0.471l-0.518,-1.537Z" id="Ellipse-20--Stroke-"/><path d="M5.829,5.75c-0.503,0 -0.958,0.302 -1.153,0.766l-0.976,2.321c-0.172,0.41 -0.441,0.772 -0.785,1.055l-1.074,0.886c-0.058,0.048 -0.091,0.119 -0.091,0.193l0,5.029c0,0.138 0.112,0.25 0.25,0.25l9,0c0.414,0 0.75,0.336 0.75,0.75c0,0.414 -0.336,0.75 -0.75,0.75l-9,0c-0.966,0 -1.75,-0.784 -1.75,-1.75l0,-5.029c0,-0.522 0.233,-1.017 0.636,-1.35l1.075,-0.886c0.156,-0.129 0.278,-0.293 0.357,-0.48l0.976,-2.321c0.429,-1.02 1.428,-1.684 2.535,-1.684l5.171,-0c0.414,-0 0.75,0.336 0.75,0.75c0,0.414 -0.336,0.75 -0.75,0.75l-5.171,-0Z" id="Vector-20--Stroke-"/><path d="M0.25,12c0,-0.414 0.336,-0.75 0.75,-0.75l2,0c0.966,0 1.75,0.784 1.75,1.75l0,1c0,0.414 -0.336,0.75 -0.75,0.75l-3,0c-0.414,0 -0.75,-0.336 -0.75,-0.75l0,-2Zm1.5,0.75l0,0.5l1.5,0l0,-0.25c0,-0.138 -0.112,-0.25 -0.25,-0.25l-1.25,0Z" id="Rectangle-18--Stroke-"/><path d="M2.25,9c0,-0.414 0.336,-0.75 0.75,-0.75l8,0c0.414,0 0.75,0.336 0.75,0.75c0,0.414 -0.336,0.75 -0.75,0.75l-8,0c-0.414,0 -0.75,-0.336 -0.75,-0.75Z" id="Vector-21--Stroke-"/><path d="M1.25,17c0,-0.414 0.336,-0.75 0.75,-0.75l3,0c0.414,0 0.75,0.336 0.75,0.75l0,2c0,0.966 -0.784,1.75 -1.75,1.75l-1,0c-0.966,0 -1.75,-0.784 -1.75,-1.75l0,-2Zm1.5,0.75l0,1.25c0,0.138 0.112,0.25 0.25,0.25l1,0c0.138,0 0.25,-0.112 0.25,-0.25l0,-1.25l-1.5,0Z" id="Rectangle-19--Stroke-"/></g></svg>